# xmcd CD database file
# Copyright (C) 1995-1998 Ti Kan
#
# Track frame offsets:
#	150
#	12037
#	25889
#	40816
#	48673
#	60260
#	75336
#	89441
#	100882
#	110847
#	115956
#	131327
#	141457
#	154455
#	161743
#	172743
#	184999
#	194508
#	205637
#	217723
#
# Disc length: 3067 seconds
#
# Revision: 1
# Processed by: cddbd v1.4PL0 Copyright (c) Steve Scherf et al.
# Submitted via: CDex 1.40Beta1
#
DISCID=0d0bf914
DTITLE=Sourdough Slim - The Best Of
DYEAR=2002
DGENRE=Country
TTITLE0=Whoopee Ti Yi Yo
TTITLE1=Conestogas Ho!
TTITLE2=I Just Yodel My Troubles Away
TTITLE3=Flor Marchita
TTITLE4=The Strawberry Roan
TTITLE5=When The Work's All Done This Fall
TTITLE6=There's Music In The Air Way Out West
TTITLE7=Ridin' High, Singin' A Song
TTITLE8=Doney Gal
TTITLE9=San Antonio Rose
TTITLE10=Cowpuncher Blues
TTITLE11=The Gal I Left Behind
TTITLE12=Oklahoma Blues
TTITLE13=Prarie Musette
TTITLE14=Wagontrain Rollin' West
TTITLE15=The Yodeling Cowboy
TTITLE16=I Ride An Old Paint
TTITLE17=Carry Me Back To The Lone Prarie
TTITLE18=When The Bloom Is On The Sage
TTITLE19=Yodel/Carson's Waltz
EXTD=YEAR: 2002 ID3G:   2
EXTT0=
EXTT1=
EXTT2=
EXTT3=
EXTT4=
EXTT5=
EXTT6=
EXTT7=
EXTT8=
EXTT9=
EXTT10=
EXTT11=
EXTT12=
EXTT13=
EXTT14=
EXTT15=
EXTT16=
EXTT17=
EXTT18=
EXTT19=
PLAYORDER=
